<svg xmlns="http://www.w3.org/2000/svg" xmlns:xlink="http://www.w3.org/1999/xlink" width="77" height="52.742" viewBox="0 0 77 52.742"><defs><style>.a{fill:url(#a);}</style><linearGradient id="a" x1="0.5" x2="0.5" y2="1" gradientUnits="objectBoundingBox"><stop offset="0" stop-color="#00b856"/><stop offset="1" stop-color="#004e97"/></linearGradient></defs><g transform="translate(-10 -87.5)"><path class="a" d="M10.939,100.3a.939.939,0,0,0,.939-.939V89.378H23.95a.939.939,0,1,0,0-1.878H11.258A1.26,1.26,0,0,0,10,88.759v10.6A.939.939,0,0,0,10.939,100.3Z" transform="translate(0)"/><path class="a" d="M23.95,353.661H11.878v-9.978a.939.939,0,0,0-1.878,0v10.6a1.259,1.259,0,0,0,1.258,1.259H23.95a.939.939,0,0,0,0-1.878Z" transform="translate(0 -215.297)"/><path class="a" d="M420.5,87.5H407.8a.939.939,0,0,0,0,1.878h12.072v9.978a.939.939,0,1,0,1.878,0v-10.6A1.26,1.26,0,0,0,420.5,87.5Z" transform="translate(-334.754)"/><path class="a" d="M420.813,342.744a.939.939,0,0,0-.939.939v9.978H407.8a.939.939,0,0,0,0,1.878h12.693a1.26,1.26,0,0,0,1.258-1.259v-10.6a.939.939,0,0,0-.939-.939Z" transform="translate(-334.752 -215.297)"/><path class="a" d="M86.618,125.665a.939.939,0,0,0,0-.827,42.587,42.587,0,0,0-76.484,0,.94.94,0,0,0,0,.827,42.587,42.587,0,0,0,76.484,0ZM70.189,141.3a40.709,40.709,0,0,1-58.163-16.045,40.709,40.709,0,0,1,72.7,0A40.816,40.816,0,0,1,70.189,141.3Z" transform="translate(-0.032 -11.38)"/><path class="a" d="M219.625,209.6a.939.939,0,0,0-.927.214,2.527,2.527,0,1,1-3.521-3.627c.049-.049.105-.1.166-.151a.939.939,0,0,0-.308-1.61,7.874,7.874,0,1,0,5.228,5.88A.939.939,0,0,0,219.625,209.6Zm-2.834,6.538a6,6,0,1,1-4.254-10.24q.263,0,.528.023a4.411,4.411,0,0,0,5.48,6.173A5.979,5.979,0,0,1,216.791,216.138Z" transform="translate(-164.209 -98.287)"/><path class="a" d="M169.547,152.921a16.132,16.132,0,1,0,16.132,16.132A16.132,16.132,0,0,0,169.547,152.921Zm0,30.387A14.254,14.254,0,1,1,183.8,169.053,14.254,14.254,0,0,1,169.547,183.308Z" transform="translate(-120.97 -55.182)"/></g></svg>