<svg id="Layer_1" data-name="Layer 1" xmlns="http://www.w3.org/2000/svg" xmlns:xlink="http://www.w3.org/1999/xlink" viewBox="0 0 63.95 66.16"><defs><style>.cls-1{fill:url(#linear-gradient);}.cls-2{fill:url(#linear-gradient-2);}.cls-3{fill:url(#linear-gradient-3);}.cls-4{fill:url(#linear-gradient-4);}.cls-5{fill:url(#linear-gradient-5);}.cls-6{fill:url(#linear-gradient-6);}.cls-7{fill:url(#linear-gradient-7);}.cls-8{fill:url(#linear-gradient-8);}</style><linearGradient id="linear-gradient" x1="-886.62" y1="488.1" x2="-886.62" y2="487.1" gradientTransform="matrix(61.75, 0, 0, -57.34, 54779.62, 27995.95)" gradientUnits="userSpaceOnUse"><stop offset="0" stop-color="#00b856"/><stop offset="1" stop-color="#004e97"/></linearGradient><linearGradient id="linear-gradient-2" x1="-714.32" y1="365.56" x2="-714.32" y2="364.56" gradientTransform="matrix(2.21, 0, 0, -2.21, 1582.79, 819.3)" xlink:href="#linear-gradient"/><linearGradient id="linear-gradient-3" x1="-714.32" y1="365.56" x2="-714.32" y2="364.56" gradientTransform="matrix(2.21, 0, 0, -2.21, 1587.2, 819.3)" xlink:href="#linear-gradient"/><linearGradient id="linear-gradient-4" x1="-714.32" y1="365.56" x2="-714.32" y2="364.56" gradientTransform="matrix(2.21, 0, 0, -2.21, 1591.61, 819.3)" xlink:href="#linear-gradient"/><linearGradient id="linear-gradient-5" x1="-879.26" y1="481.92" x2="-879.26" y2="480.92" gradientTransform="matrix(28.67, 0, 0, -25.36, 25255.31, 12222.47)" xlink:href="#linear-gradient"/><linearGradient id="linear-gradient-6" x1="-867.48" y1="365.56" x2="-867.48" y2="364.56" gradientTransform="matrix(15.44, 0, 0, -2.21, 13441.74, 810.48)" xlink:href="#linear-gradient"/><linearGradient id="linear-gradient-7" x1="-867.48" y1="365.56" x2="-867.48" y2="364.56" gradientTransform="matrix(15.44, 0, 0, -2.21, 13441.74, 814.89)" xlink:href="#linear-gradient"/><linearGradient id="linear-gradient-8" x1="-867.48" y1="365.56" x2="-867.48" y2="364.56" gradientTransform="matrix(15.44, 0, 0, -2.21, 13441.74, 819.3)" xlink:href="#linear-gradient"/></defs><title>courses</title><path id="Path_93" data-name="Path 93" class="cls-1" d="M59.54,62.85a1.1,1.1,0,0,1-1.1,1.1h-11V60.18a7.77,7.77,0,0,0-5.69-7.45L35.28,51V49.31A7.71,7.71,0,0,0,38.59,43V40.92l.5-.23a1.12,1.12,0,0,0,.61-1V33.08l5.9-2.27a1.11,1.11,0,0,0,.65-1.42,1.08,1.08,0,0,0-.65-.64L31.27,23.23a1.19,1.19,0,0,0-.79,0L16.14,28.75a1.1,1.1,0,0,0-.7,1v5.06l-3,3L14,39.37,15.44,38V39.7h2.2V38l1.43,1.42,1.56-1.56-3-3V31.38l4.41,1.7v6.61a1.13,1.13,0,0,0,.61,1l.5.23V43a7.56,7.56,0,0,0,3.3,6.31V51L20,52.73a7.78,7.78,0,0,0-5.69,7.45V64h-11a1.1,1.1,0,0,1-1.1-1.1v-43H33.08V17.64H2.2V12.13A1.11,1.11,0,0,1,3.3,11H33.08V8.82H3.31A3.31,3.31,0,0,0,0,12.13V62.85a3.31,3.31,0,0,0,3.31,3.31H58.44a3.31,3.31,0,0,0,3.31-3.31V22.05H59.54Zm-30.87-11V50.39a7.53,7.53,0,0,0,4.41,0v1.43a1.07,1.07,0,0,0,.39.82L30.88,54.8l-2.59-2.16A1.07,1.07,0,0,0,28.67,51.82Zm2.2-26.39,11.27,4.34L30.87,34.1,19.61,29.77Zm-.39,10.88a1.08,1.08,0,0,0,.79,0l6.22-2.39V39a18.85,18.85,0,0,1-6.62,1.8A19.06,19.06,0,0,1,24.25,39V33.92ZM25.36,43V41.82A16.83,16.83,0,0,0,30.87,43a16.88,16.88,0,0,0,5.52-1.18V43a5.52,5.52,0,0,1-8.28,4.77A5.08,5.08,0,0,1,27,46.9,5.48,5.48,0,0,1,25.36,43ZM16.54,60.18a5.52,5.52,0,0,1,4.06-5.32l5.2-1.42,4.36,3.64a1.09,1.09,0,0,0,1.42,0l4.36-3.64,5.2,1.42a5.54,5.54,0,0,1,4.07,5.32V64H41.9V59.54H39.7V64H22.05V59.54h-2.2V64H16.54Z"/><path id="Path_94" data-name="Path 94" class="cls-2" d="M6.62,13.23h2.2v2.21H6.62Z"/><path id="Path_95" data-name="Path 95" class="cls-3" d="M11,13.23h2.2v2.21H11Z"/><path id="Path_96" data-name="Path 96" class="cls-4" d="M15.44,13.23h2.2v2.21h-2.2Z"/><path id="Path_97" data-name="Path 97" class="cls-5" d="M60.65,0H38.59a3.31,3.31,0,0,0-3.3,3.31h0V16.54a3.31,3.31,0,0,0,3.3,3.31H41.9v4.41a1.1,1.1,0,0,0,.74,1,1.15,1.15,0,0,0,.37.06,1.11,1.11,0,0,0,.86-.41L48,19.85h12.7A3.31,3.31,0,0,0,64,16.54h0V3.31A3.31,3.31,0,0,0,60.65,0Zm1.1,16.54a1.1,1.1,0,0,1-1.1,1.1H47.41a1.11,1.11,0,0,0-.86.41l-2.44,3.06V18.74a1.11,1.11,0,0,0-1.1-1.1H38.6a1.1,1.1,0,0,1-1.1-1.1h0V3.31a1.1,1.1,0,0,1,1.1-1.1h22a1.1,1.1,0,0,1,1.1,1.1h0Z"/><path id="Path_98" data-name="Path 98" class="cls-6" d="M41.9,4.41H57.34V6.62H41.9Z"/><path id="Path_99" data-name="Path 99" class="cls-7" d="M41.9,8.82H57.34V11H41.9Z"/><path id="Path_100" data-name="Path 100" class="cls-8" d="M41.9,13.23H57.34v2.21H41.9Z"/></svg>