<svg xmlns="http://www.w3.org/2000/svg" xmlns:xlink="http://www.w3.org/1999/xlink" width="61.263" height="61.263" viewBox="0 0 61.263 61.263"><defs><style>.a{fill:url(#a);}</style><linearGradient id="a" x1="0.5" x2="0.5" y2="1" gradientUnits="objectBoundingBox"><stop offset="0" stop-color="#00b856"/><stop offset="1" stop-color="#004e97"/></linearGradient></defs><path class="a" d="M61.263,31.62V23.691a4.91,4.91,0,0,0-3.521-4.732l-6.361-1.908v-1.5a6.909,6.909,0,0,0,2.964-5.668V6.917a6.917,6.917,0,0,0-13.834,0V9.881a6.907,6.907,0,0,0,2.964,5.668v1.5l-5.605,1.682a11.419,11.419,0,0,0-15.06-.173l-5.025-1.508v-1.5A6.909,6.909,0,0,0,20.75,9.882V6.917a6.917,6.917,0,1,0-13.834,0V9.881a6.907,6.907,0,0,0,2.964,5.668v1.5L3.521,18.958A4.912,4.912,0,0,0,0,23.691V31.62H1.976V23.691a2.945,2.945,0,0,1,2.113-2.839l6.362-1.909a4.3,4.3,0,0,0,3.382,1.807,4.3,4.3,0,0,0,3.382-1.807l4.052,1.215a11.405,11.405,0,0,0-2.4,5.741A6.907,6.907,0,0,0,6.917,30.632V33.6a6.907,6.907,0,0,0,2.964,5.668v1.5L3.521,42.673A4.912,4.912,0,0,0,0,47.406v8.917H11.857a.99.99,0,0,1,.988.988v3.952H48.418V57.311a.99.99,0,0,1,.988-.988H61.263V47.406a4.91,4.91,0,0,0-3.521-4.732l-6.361-1.908v-1.5A6.909,6.909,0,0,0,54.346,33.6V30.633A6.911,6.911,0,0,0,42.489,25.8v-.936a5.313,5.313,0,0,0-2.715-4.637l4.274-1.283a4.069,4.069,0,0,0,6.764,0l6.363,1.909a2.945,2.945,0,0,1,2.112,2.839V31.62ZM13.834,1.976a4.946,4.946,0,0,1,4.941,4.941H14.243a2.4,2.4,0,0,1-1.687-.7l-.7-.7-.7.7a2.4,2.4,0,0,1-1.687.7H8.893a4.946,4.946,0,0,1,4.941-4.941Zm-4.941,7.9V8.893h.579a4.327,4.327,0,0,0,2.385-.708,4.327,4.327,0,0,0,2.385.708h4.531v.988a4.941,4.941,0,0,1-9.881,0Zm4.941,8.893a2.528,2.528,0,0,1-1.976-1.26V16.508a6.857,6.857,0,0,0,3.952,0v1.007A2.524,2.524,0,0,1,13.834,18.774ZM40.995,36.117a6.947,6.947,0,0,0,2.482,3.147v1.5l-6.36,1.908a4.852,4.852,0,0,0-.612.233l-.934-.215V40.745a7.946,7.946,0,0,0,2.4-3.241,4.921,4.921,0,0,0,3.023-1.387ZM30.632,42.489a7.851,7.851,0,0,0,2.964-.582v1.076l-2.964,2.223-2.964-2.223V41.907a7.851,7.851,0,0,0,2.964.582Zm-4.178,2.054,2.409,1.807-2.478,1.487L25.758,44.7ZM29.54,52.37h2.184l.769,6.917H28.771ZM31.9,50.394H29.367l-.567-1.7,1.832-1.1,1.831,1.1Zm.505-4.043,2.409-1.807.7.16-.627,3.133ZM39.742,34.6a2.963,2.963,0,0,1-1.248.8,8.013,8.013,0,0,0,.042-.816V29.856A2.984,2.984,0,0,1,40.5,32.313a2.948,2.948,0,0,1-.756,2.289Zm-3.182-.018a5.929,5.929,0,0,1-11.857,0V29.644h3.355a12.708,12.708,0,0,0,6.122-1.564l.782,1.564h1.6ZM22.769,35.4a2.921,2.921,0,0,1-.042-5.544v4.727a8.013,8.013,0,0,0,.042.816Zm.523,2.1a7.929,7.929,0,0,0,2.4,3.241v1.947l-.934.215a5.113,5.113,0,0,0-.611-.233l-6.361-1.908v-1.5a6.953,6.953,0,0,0,2.482-3.147A4.921,4.921,0,0,0,23.292,37.5ZM13.834,25.691a4.946,4.946,0,0,1,4.941,4.941H18.2a2.4,2.4,0,0,1-1.687-.7l-.7-.7-.7.7a2.4,2.4,0,0,1-1.687.7H8.893a4.946,4.946,0,0,1,4.941-4.941ZM8.893,33.6v-.988h4.531A4.327,4.327,0,0,0,15.81,31.9a4.327,4.327,0,0,0,2.385.708h.579V33.6a4.941,4.941,0,0,1-9.881,0Zm4.941,6.917a6.875,6.875,0,0,0,1.976-.291v1.007a2.524,2.524,0,0,1-1.976,1.261,2.528,2.528,0,0,1-1.976-1.26V40.222A6.908,6.908,0,0,0,13.834,40.513ZM11.857,54.346H7.9V47.43H5.929v6.917H1.976v-6.94a2.945,2.945,0,0,1,2.113-2.839l6.362-1.909a4.3,4.3,0,0,0,3.382,1.807,4.3,4.3,0,0,0,3.382-1.807l3.747,1.125-2.756.635a6.886,6.886,0,0,0-5.361,6.74V52.37h1.976V51.158a4.919,4.919,0,0,1,3.83-4.814l5.18-1.2L25,50.974l2.067-1.24.585,1.755-.866,7.8H21.739v-7.9H19.762v7.9H14.822V57.311a2.968,2.968,0,0,0-2.964-2.964Zm45.317-9.779a2.945,2.945,0,0,1,2.113,2.839v6.94H55.334V47.43H53.358v6.917H49.406a2.968,2.968,0,0,0-2.964,2.964v1.976H41.5v-7.9H39.525v7.9H34.48l-.867-7.8.585-1.755,2.067,1.24,1.165-5.826,5.181,1.2a4.919,4.919,0,0,1,3.83,4.814V52.37h1.976V51.158a6.886,6.886,0,0,0-5.361-6.74L40.3,43.783l3.747-1.125a4.068,4.068,0,0,0,6.764,0Zm-7.768-3.338a2.18,2.18,0,0,1-3.952,0V40.221a6.847,6.847,0,0,0,3.952,0ZM47.43,38.537A4.946,4.946,0,0,1,42.489,33.6v-.988h.579a4.327,4.327,0,0,0,2.385-.708,4.327,4.327,0,0,0,2.385.708H52.37V33.6A4.946,4.946,0,0,1,47.43,38.537Zm0-12.845a4.946,4.946,0,0,1,4.941,4.941H47.839a2.4,2.4,0,0,1-1.687-.7l-.7-.7-.7.7a2.4,2.4,0,0,1-1.687.7h-.579a4.946,4.946,0,0,1,4.941-4.941Zm-6.917,3.048a5.191,5.191,0,0,0-3.134-1.072h-1.2l-1.215-2.431-.931.62a10.743,10.743,0,0,1-5.979,1.81H23.885a5.191,5.191,0,0,0-3.134,1.072V27.278a9.493,9.493,0,0,1,16.2-6.712L38,21.614l.221.074a3.343,3.343,0,0,1,2.288,3.175ZM47.43,1.976A4.946,4.946,0,0,1,52.37,6.917h-.579a2.4,2.4,0,0,1-1.687-.7l-.7-.7-.7.7a2.4,2.4,0,0,1-1.687.7H42.489A4.946,4.946,0,0,1,47.43,1.976Zm-4.941,7.9V8.893H47.02a4.327,4.327,0,0,0,2.385-.708,4.327,4.327,0,0,0,2.385.708h.579v.988a4.941,4.941,0,0,1-9.881,0Zm4.941,8.893a2.527,2.527,0,0,1-1.976-1.26V16.507a6.847,6.847,0,0,0,3.952,0v1.007a2.524,2.524,0,0,1-1.976,1.261Zm0,0" transform="translate(0 0)"/><path class="a" d="M184,0h1.976V1.976H184Zm0,0" transform="translate(-161.273)"/><path class="a" d="M184,32h1.976V42.869H184Zm0,0" transform="translate(-161.273 -28.048)"/><path class="a" d="M296,0h1.976V1.976H296Zm0,0" transform="translate(-259.44)"/><path class="a" d="M296,32h1.976V42.869H296Zm0,0" transform="translate(-259.44 -28.048)"/><path class="a" d="M216,32h1.976v6.917H216Zm0,0" transform="translate(-189.321 -28.048)"/><path class="a" d="M216,104h1.976v1.976H216Zm0,0" transform="translate(-189.321 -91.155)"/><path class="a" d="M264,32h1.976v6.917H264Zm0,0" transform="translate(-231.392 -28.048)"/><path class="a" d="M264,104h1.976v1.976H264Zm0,0" transform="translate(-231.392 -91.155)"/></svg>