<svg xmlns="http://www.w3.org/2000/svg" xmlns:xlink="http://www.w3.org/1999/xlink" width="61.37" height="70.462" viewBox="0 0 61.37 70.462"><defs><style>.a{fill:url(#a);}</style><linearGradient id="a" x1="0.5" x2="0.5" y2="1.228" gradientUnits="objectBoundingBox"><stop offset="0" stop-color="#00b856"/><stop offset="1" stop-color="#004e97"/></linearGradient></defs><path class="a" d="M56.824,22.73V11.365H52.278V0H0V64.779a5.689,5.689,0,0,0,5.682,5.682H55.687a5.689,5.689,0,0,0,5.682-5.682V22.73ZM5.682,68.189a3.414,3.414,0,0,1-3.409-3.409V2.273H50.005V64.779a5.653,5.653,0,0,0,1.139,3.409ZM59.1,64.779a3.409,3.409,0,1,1-6.819,0V13.638h2.273V61.37h2.273V25H59.1Zm0,0"/><path class="a" d="M384,448h2.273v2.273H384Zm0,0" transform="translate(-329.449 -384.357)"/><path class="a" d="M162.607,285.877l-3.833-1.094v-.3a5.688,5.688,0,0,0,2.273-4.522V277.88a5.832,5.832,0,0,0-5.129-5.85,5.68,5.68,0,0,0-6.236,5.655v2.273a5.688,5.688,0,0,0,2.273,4.522v.3l-3.835,1.094A5.709,5.709,0,0,0,144,291.343v3.389h22.73v-3.389a5.708,5.708,0,0,0-4.122-5.465Zm1.849,6.581H146.272v-1.116a3.426,3.426,0,0,1,2.473-3.279l5.483-1.567v-3.277l-.565-.329a3.373,3.373,0,0,1-1.708-2.933v-2.273a3.41,3.41,0,0,1,3.747-3.394,3.545,3.545,0,0,1,3.072,3.59v2.078a3.373,3.373,0,0,1-1.708,2.933l-.565.329V286.5l5.481,1.567a3.425,3.425,0,0,1,2.474,3.279Zm0,0" transform="translate(-123.543 -233.362)"/><path class="a" d="M112,271.821h31.821V240H112Zm2.273-29.548h27.275v27.275H114.273Zm0,0" transform="translate(-96.089 -205.906)"/><path class="a" d="M45.638,59.275A13.638,13.638,0,1,0,32,45.638,13.653,13.653,0,0,0,45.638,59.275Zm0-2.273a11.378,11.378,0,0,1-10.391-6.781,5.627,5.627,0,0,1,3.63,1.626l.235.235a5.154,5.154,0,0,0,8.8-3.644v-1.1a3.982,3.982,0,0,0-3.978-3.978,1.707,1.707,0,0,1-1.7-1.7v-1.7a7.976,7.976,0,0,0-1.464-4.569,11.248,11.248,0,0,1,3.811-1.059,6.369,6.369,0,0,0-.074.773,6.479,6.479,0,0,0,2.443,5.085l1.937,1.548a3.453,3.453,0,0,1,1.3,2.708,5.75,5.75,0,0,0,5.743,5.743c.041,0,.084-.008.125-.009A11.378,11.378,0,0,1,45.638,57ZM57,45.638a11.379,11.379,0,0,1-.217,2.2,5.543,5.543,0,0,1-.859.076,3.473,3.473,0,0,1-3.47-3.47A5.713,5.713,0,0,0,50.3,39.958l-1.937-1.549A4.214,4.214,0,0,1,46.774,35.1a3.94,3.94,0,0,1,.075-.76A11.379,11.379,0,0,1,57,45.638ZM38.828,36.561a5.714,5.714,0,0,1,1.128,3.394v1.7a3.982,3.982,0,0,0,3.978,3.978,1.707,1.707,0,0,1,1.7,1.7v1.1a2.882,2.882,0,0,1-4.919,2.038l-.235-.235a7.9,7.9,0,0,0-5.625-2.331,2.575,2.575,0,0,1-.362-.034,11.322,11.322,0,0,1,4.331-11.316Zm0,0" transform="translate(-27.454 -27.454)"/><path class="a" d="M240,32h13.638v2.273H240Zm0,0" transform="translate(-205.906 -27.454)"/><path class="a" d="M240,64h2.273v2.273H240Zm0,0" transform="translate(-205.906 -54.908)"/><path class="a" d="M272,64h9.092v2.273H272Zm0,0" transform="translate(-233.36 -54.908)"/><path class="a" d="M240,96h13.638v2.273H240Zm0,0" transform="translate(-205.906 -82.362)"/><path class="a" d="M240,128h13.638v2.273H240Zm0,0" transform="translate(-205.906 -109.816)"/><path class="a" d="M240,160h9.092v2.273H240Zm0,0" transform="translate(-205.906 -137.27)"/><path class="a" d="M320,160h2.273v2.273H320Zm0,0" transform="translate(-274.541 -137.27)"/><path class="a" d="M32,440h9.092v2.273H32Zm0,0" transform="translate(-27.454 -377.494)"/><path class="a" d="M32,408h9.092v2.273H32Zm0,0" transform="translate(-27.454 -350.04)"/><path class="a" d="M32,376h9.092v2.273H32Zm0,0" transform="translate(-27.454 -322.586)"/><path class="a" d="M32,344h9.092v2.273H32Zm0,0" transform="translate(-27.454 -295.131)"/><path class="a" d="M32,312h9.092v2.273H32Zm0,0" transform="translate(-27.454 -267.677)"/></svg>