<svg xmlns="http://www.w3.org/2000/svg" xmlns:xlink="http://www.w3.org/1999/xlink" width="63.956" height="66.161" viewBox="0 0 63.956 66.161"><defs><style>.a{fill:url(#a);}</style><linearGradient id="a" x1="0.5" x2="0.5" y2="1" gradientUnits="objectBoundingBox"><stop offset="0" stop-color="#00b856"/><stop offset="1" stop-color="#004e97"/></linearGradient></defs><path class="a" d="M59.545,118.032a1.1,1.1,0,0,1-1.1,1.1H47.415v-3.771a7.753,7.753,0,0,0-5.687-7.449l-6.443-1.753v-1.669a7.719,7.719,0,0,0,3.308-6.31V96.1c.281-.129.459-.22.493-.234a1.1,1.1,0,0,0,.61-.987V88.259l5.909-2.273a1.1,1.1,0,0,0,0-2.06L31.271,78.413a1.114,1.114,0,0,0-.791,0L16.144,83.926a1.1,1.1,0,0,0-.707,1.025v5.057l-2.985,2.985,1.559,1.559,1.426-1.426v1.749h2.205V93.126l1.426,1.426,1.559-1.559-2.985-2.985V86.557l4.411,1.7v6.616a1.1,1.1,0,0,0,.61.992c.034.017.212.1.493.234v2.082a7.567,7.567,0,0,0,3.308,6.313v1.666l-6.446,1.754a7.751,7.751,0,0,0-5.683,7.447v3.771H3.308a1.1,1.1,0,0,1-1.1-1.1v-43H33.08V72.822H2.205V67.308a1.1,1.1,0,0,1,1.1-1.1H33.08V64H3.308A3.308,3.308,0,0,0,0,67.308v50.723a3.308,3.308,0,0,0,3.308,3.308H58.442a3.308,3.308,0,0,0,3.308-3.308v-40.8H59.545ZM28.67,107v-1.433a7.5,7.5,0,0,0,4.411,0V107a1.091,1.091,0,0,0,.385.819l-2.59,2.158-2.59-2.157A1.09,1.09,0,0,0,28.67,107Zm2.205-26.386,11.263,4.333L30.875,89.284,19.612,84.951Zm-.4,10.876a1.114,1.114,0,0,0,.791,0l6.22-2.393v5.072a18.921,18.921,0,0,1-6.616,1.8,18.969,18.969,0,0,1-6.616-1.805V89.1Zm-5.118,6.689V97a17.2,17.2,0,0,0,5.513,1.183A17.2,17.2,0,0,0,36.389,97v1.183a5.513,5.513,0,0,1-8.279,4.762,5.207,5.207,0,0,1-1.134-.87,5.437,5.437,0,0,1-1.614-3.892Zm-8.821,17.18a5.54,5.54,0,0,1,4.061-5.321l5.2-1.414,4.367,3.639a1.1,1.1,0,0,0,1.412,0l4.367-3.639,5.2,1.413a5.543,5.543,0,0,1,4.065,5.322v3.771H41.9v-4.411H39.7v4.411H22.054v-4.411H19.848v4.411H16.54Zm0,0" transform="translate(0 -55.179)"/><path class="a" d="M48,96h2.205v2.205H48Zm0,0" transform="translate(-41.384 -82.768)"/><path class="a" d="M80,96h2.205v2.205H80Zm0,0" transform="translate(-68.973 -82.768)"/><path class="a" d="M112,96h2.205v2.205H112Zm0,0" transform="translate(-96.562 -82.768)"/><path class="a" d="M281.362,0H259.308A3.308,3.308,0,0,0,256,3.308V16.54a3.308,3.308,0,0,0,3.308,3.308h3.308v4.411a1.1,1.1,0,0,0,.738,1.041,1.137,1.137,0,0,0,.365.062,1.1,1.1,0,0,0,.861-.414l4.079-5.1h12.7a3.308,3.308,0,0,0,3.308-3.308V3.308A3.308,3.308,0,0,0,281.362,0Zm1.1,16.54a1.1,1.1,0,0,1-1.1,1.1H268.129a1.1,1.1,0,0,0-.861.414l-2.447,3.059v-2.37a1.1,1.1,0,0,0-1.1-1.1h-4.411a1.1,1.1,0,0,1-1.1-1.1V3.308a1.1,1.1,0,0,1,1.1-1.1h22.054a1.1,1.1,0,0,1,1.1,1.1Zm0,0" transform="translate(-220.714)"/><path class="a" d="M304,32h15.438v2.205H304Zm0,0" transform="translate(-262.098 -27.589)"/><path class="a" d="M304,64h15.438v2.205H304Zm0,0" transform="translate(-262.098 -55.179)"/><path class="a" d="M304,96h15.438v2.205H304Zm0,0" transform="translate(-262.098 -82.768)"/></svg>