<svg id="Layer_1" data-name="Layer 1" xmlns="http://www.w3.org/2000/svg" xmlns:xlink="http://www.w3.org/1999/xlink" viewBox="0 0 77 52.75"><defs><style>.cls-1{fill:url(#linear-gradient);}.cls-2{fill:url(#linear-gradient-2);}.cls-3{fill:url(#linear-gradient-3);}.cls-4{fill:url(#linear-gradient-4);}.cls-5{fill:url(#linear-gradient-5);}.cls-6{fill:url(#linear-gradient-6);}.cls-7{fill:url(#linear-gradient-7);}</style><linearGradient id="linear-gradient" x1="-794.71" y1="483.98" x2="-794.71" y2="482.98" gradientTransform="matrix(14.89, 0, 0, -12.8, 11840.89, 6195)" gradientUnits="userSpaceOnUse"><stop offset="0" stop-color="#00b856"/><stop offset="1" stop-color="#004e97"/></linearGradient><linearGradient id="linear-gradient-2" x1="-794.7" y1="483.98" x2="-794.7" y2="482.98" gradientTransform="matrix(14.89, 0, 0, -12.8, 11837.46, 6233.94)" xlink:href="#linear-gradient"/><linearGradient id="linear-gradient-3" x1="-794.71" y1="483.98" x2="-794.71" y2="482.98" gradientTransform="matrix(14.89, 0, 0, -12.8, 11900.96, 6193.96)" xlink:href="#linear-gradient"/><linearGradient id="linear-gradient-4" x1="-794.71" y1="483.98" x2="-794.71" y2="482.98" gradientTransform="matrix(14.89, 0, 0, -12.8, 11900.39, 6233.94)" xlink:href="#linear-gradient"/><linearGradient id="linear-gradient-5" x1="-811.87" y1="499.46" x2="-811.87" y2="498.46" gradientTransform="matrix(76.68, 0, 0, -48.54, 62288.78, 24245.5)" xlink:href="#linear-gradient"/><linearGradient id="linear-gradient-6" x1="-795.87" y1="487.92" x2="-795.87" y2="486.92" gradientTransform="matrix(15.75, 0, 0, -15.75, 12573.45, 7704.13)" xlink:href="#linear-gradient"/><linearGradient id="linear-gradient-7" x1="-806.17" y1="496.66" x2="-806.17" y2="495.66" gradientTransform="matrix(32.26, 0, 0, -32.26, 26049.01, 16034.56)" xlink:href="#linear-gradient"/></defs><title>Vision</title><g id="business"><path id="Path_60" data-name="Path 60" class="cls-1" d="M.94,12.8a.94.94,0,0,0,.94-.94h0v-10H14A.94.94,0,0,0,14,0H1.26A1.25,1.25,0,0,0,0,1.26v10.6a.94.94,0,0,0,.94.94Z"/><path id="Path_61" data-name="Path 61" class="cls-2" d="M14,50.86H1.88v-10a.94.94,0,0,0-1.88,0v10.6a1.27,1.27,0,0,0,1.26,1.26H14a1,1,0,0,0,.94-1,.94.94,0,0,0-.94-.93Z"/><path id="Path_62" data-name="Path 62" class="cls-3" d="M75.75,0H63.05a.94.94,0,1,0,0,1.88H75.12v10a.94.94,0,0,0,.93.94,1,1,0,0,0,1-.94h0V1.26A1.27,1.27,0,0,0,75.75,0Z"/><path id="Path_63" data-name="Path 63" class="cls-4" d="M76.06,40a.94.94,0,0,0-.94.94v10H63.05a1,1,0,0,0-.94,1,.94.94,0,0,0,.94.93H75.74A1.25,1.25,0,0,0,77,51.48V40.88a.94.94,0,0,0-.94-.94Z"/><path id="Path_64" data-name="Path 64" class="cls-5" d="M76.59,26.79a1,1,0,0,0,0-.83A42.59,42.59,0,0,0,.1,26a.93.93,0,0,0,0,.83,42.6,42.6,0,0,0,76.49,0ZM60.16,42.42A40.71,40.71,0,0,1,4,29.86q-1.07-1.7-2-3.48a40.7,40.7,0,0,1,72.7,0A40.83,40.83,0,0,1,60.16,42.42Z"/><path id="Path_65" data-name="Path 65" class="cls-6" d="M45.42,23.81a.94.94,0,0,0-.93.22A2.53,2.53,0,1,1,41,20.4l.16-.15a.94.94,0,0,0,.12-1.32.87.87,0,0,0-.42-.29,7.87,7.87,0,1,0,5.22,5.88A1,1,0,0,0,45.42,23.81Zm-2.84,6.54a6,6,0,1,1-4.25-10.24l.53,0a4.42,4.42,0,0,0,5.48,6.18A6,6,0,0,1,42.58,30.35Z"/><path id="Path_66" data-name="Path 66" class="cls-7" d="M38.58,10.24A16.13,16.13,0,1,0,54.71,26.37,16.14,16.14,0,0,0,38.58,10.24Zm0,30.39A14.26,14.26,0,1,1,52.83,26.37,14.25,14.25,0,0,1,38.58,40.63Z"/></g></svg>